# xmcd
#
# Track frame offsets:
#	182
#	14587
#	30432
#	45657
#	61945
#	77750
#	94552
#	114147
#	131712
#	145187
#	159120
#	172132
#
# Disc length: 2491 seconds
#
# Revision: 0
# Processed by: cddbd v1.4PL0 Copyright (c) Steve Scherf et al.
# Submitted via: audiograbber 1.81.01
#
DISCID=8f09b90c
DTITLE=Al Bano Romina Power - I grandi successi originali cd1
DYEAR=1900
DGENRE=pop
TTITLE0=Felicità
TTITLE1=Che angelo sei
TTITLE2=Canzone blù
TTITLE3=Nagic o magic
TTITLE4=Angeli
TTITLE5=Al ritmo di becuine
TTITLE6=Sharazan
TTITLE7=E fu subito amore
TTITLE8=Canto di libertà
TTITLE9=Arrivederci a bahia
TTITLE10=Gli innamorati
TTITLE11=Quando un amore se ne va
EXTD=
EXTT0=
EXTT1=
EXTT2=
EXTT3=
EXTT4=
EXTT5=
EXTT6=
EXTT7=
EXTT8=
EXTT9=
EXTT10=
EXTT11=
PLAYORDER=
